<mxfile host="app.diagrams.net" modified="2023-06-21T07:46:28.603Z" agent="Mozilla/5.0 (Windows NT 10.0; Win64; x64) AppleWebKit/537.36 (KHTML, like Gecko) Chrome/114.0.0.0 Safari/537.36" etag="PsDZhjrcz1FiqfBM9lxs" version="21.5.0" type="github">
  <diagram id="C5RBs43oDa-KdzZeNtuy" name="Page-1">
    <mxGraphModel dx="1151" dy="586" grid="1" gridSize="10" guides="1" tooltips="1" connect="1" arrows="1" fold="1" page="1" pageScale="1" pageWidth="827" pageHeight="1169" math="0" shadow="0">
      <root>
        <mxCell id="WIyWlLk6GJQsqaUBKTNV-0" />
        <mxCell id="WIyWlLk6GJQsqaUBKTNV-1" parent="WIyWlLk6GJQsqaUBKTNV-0" />
        <mxCell id="WdN5sWiW3RrCAJHhE6Rf-3" value="TAUC-Account" style="shape=cylinder3;whiteSpace=wrap;html=1;boundedLbl=1;backgroundOutline=1;size=15;" parent="WIyWlLk6GJQsqaUBKTNV-1" vertex="1">
          <mxGeometry x="240" y="220" width="116" height="80" as="geometry" />
        </mxCell>
        <mxCell id="WdN5sWiW3RrCAJHhE6Rf-4" value="TAUC-Statistic" style="shape=cylinder3;whiteSpace=wrap;html=1;boundedLbl=1;backgroundOutline=1;size=15;" parent="WIyWlLk6GJQsqaUBKTNV-1" vertex="1">
          <mxGeometry x="240" y="390" width="116" height="80" as="geometry" />
        </mxCell>
        <mxCell id="WdN5sWiW3RrCAJHhE6Rf-12" value="" style="whiteSpace=wrap;html=1;aspect=fixed;fillColor=none;" parent="WIyWlLk6GJQsqaUBKTNV-1" vertex="1">
          <mxGeometry x="570" y="184" width="446" height="446" as="geometry" />
        </mxCell>
        <mxCell id="WdN5sWiW3RrCAJHhE6Rf-13" value="HomeShield 三区分离适配" style="text;html=1;strokeColor=none;fillColor=none;align=center;verticalAlign=middle;whiteSpace=wrap;rounded=0;" parent="WIyWlLk6GJQsqaUBKTNV-1" vertex="1">
          <mxGeometry x="550" y="184" width="190" height="30" as="geometry" />
        </mxCell>
        <mxCell id="WdN5sWiW3RrCAJHhE6Rf-14" value="TAUC-Network" style="shape=cylinder3;whiteSpace=wrap;html=1;boundedLbl=1;backgroundOutline=1;size=15;" parent="WIyWlLk6GJQsqaUBKTNV-1" vertex="1">
          <mxGeometry x="390" y="310" width="116" height="80" as="geometry" />
        </mxCell>
        <mxCell id="WdN5sWiW3RrCAJHhE6Rf-17" value="" style="endArrow=classic;html=1;rounded=0;exitX=1;exitY=0;exitDx=0;exitDy=52.5;exitPerimeter=0;entryX=0.087;entryY=0.058;entryDx=0;entryDy=0;entryPerimeter=0;" parent="WIyWlLk6GJQsqaUBKTNV-1" source="WdN5sWiW3RrCAJHhE6Rf-3" target="WdN5sWiW3RrCAJHhE6Rf-14" edge="1">
          <mxGeometry width="50" height="50" relative="1" as="geometry">
            <mxPoint x="210" y="340" as="sourcePoint" />
            <mxPoint x="260" y="290" as="targetPoint" />
          </mxGeometry>
        </mxCell>
        <mxCell id="WdN5sWiW3RrCAJHhE6Rf-19" value="" style="endArrow=classic;html=1;rounded=0;exitX=1;exitY=0.5;exitDx=0;exitDy=0;exitPerimeter=0;entryX=0.145;entryY=1;entryDx=0;entryDy=-4.35;entryPerimeter=0;" parent="WIyWlLk6GJQsqaUBKTNV-1" source="WdN5sWiW3RrCAJHhE6Rf-4" target="WdN5sWiW3RrCAJHhE6Rf-14" edge="1">
          <mxGeometry width="50" height="50" relative="1" as="geometry">
            <mxPoint x="280" y="450" as="sourcePoint" />
            <mxPoint x="330" y="400" as="targetPoint" />
          </mxGeometry>
        </mxCell>
        <mxCell id="WdN5sWiW3RrCAJHhE6Rf-20" value="HomeShield Host 匹配" style="ellipse;whiteSpace=wrap;html=1;" parent="WIyWlLk6GJQsqaUBKTNV-1" vertex="1">
          <mxGeometry x="930" y="430" width="80" height="50" as="geometry" />
        </mxCell>
        <mxCell id="WdN5sWiW3RrCAJHhE6Rf-23" value="HomeShield 服务管理" style="ellipse;whiteSpace=wrap;html=1;" parent="WIyWlLk6GJQsqaUBKTNV-1" vertex="1">
          <mxGeometry x="590" y="390" width="80" height="50" as="geometry" />
        </mxCell>
        <mxCell id="WdN5sWiW3RrCAJHhE6Rf-26" value="HomeShield 修改" style="ellipse;whiteSpace=wrap;html=1;" parent="WIyWlLk6GJQsqaUBKTNV-1" vertex="1">
          <mxGeometry x="790" y="220" width="80" height="50" as="geometry" />
        </mxCell>
        <mxCell id="WdN5sWiW3RrCAJHhE6Rf-27" value="HomeShield 订阅" style="ellipse;whiteSpace=wrap;html=1;" parent="WIyWlLk6GJQsqaUBKTNV-1" vertex="1">
          <mxGeometry x="580" y="260" width="80" height="50" as="geometry" />
        </mxCell>
        <mxCell id="WdN5sWiW3RrCAJHhE6Rf-28" value="HomeShield 移除" style="ellipse;whiteSpace=wrap;html=1;" parent="WIyWlLk6GJQsqaUBKTNV-1" vertex="1">
          <mxGeometry x="870" y="265" width="80" height="50" as="geometry" />
        </mxCell>
        <mxCell id="WdN5sWiW3RrCAJHhE6Rf-33" value="HomeShield 统计" style="ellipse;whiteSpace=wrap;html=1;" parent="WIyWlLk6GJQsqaUBKTNV-1" vertex="1">
          <mxGeometry x="670" y="230" width="80" height="50" as="geometry" />
        </mxCell>
        <mxCell id="WdN5sWiW3RrCAJHhE6Rf-35" value="《include》" style="endArrow=classic;html=1;rounded=0;exitX=0.896;exitY=0.237;exitDx=0;exitDy=0;exitPerimeter=0;dashed=1;" parent="WIyWlLk6GJQsqaUBKTNV-1" source="WdN5sWiW3RrCAJHhE6Rf-23" target="WdN5sWiW3RrCAJHhE6Rf-28" edge="1">
          <mxGeometry width="50" height="50" relative="1" as="geometry">
            <mxPoint x="770" y="330" as="sourcePoint" />
            <mxPoint x="820" y="280" as="targetPoint" />
          </mxGeometry>
        </mxCell>
        <mxCell id="WdN5sWiW3RrCAJHhE6Rf-36" value="《include》" style="endArrow=classic;html=1;rounded=0;dashed=1;" parent="WIyWlLk6GJQsqaUBKTNV-1" source="WdN5sWiW3RrCAJHhE6Rf-23" target="WdN5sWiW3RrCAJHhE6Rf-26" edge="1">
          <mxGeometry width="50" height="50" relative="1" as="geometry">
            <mxPoint x="820" y="340" as="sourcePoint" />
            <mxPoint x="870" y="290" as="targetPoint" />
          </mxGeometry>
        </mxCell>
        <mxCell id="WdN5sWiW3RrCAJHhE6Rf-37" value="《include》" style="endArrow=classic;html=1;rounded=0;dashed=1;" parent="WIyWlLk6GJQsqaUBKTNV-1" source="WdN5sWiW3RrCAJHhE6Rf-23" target="WdN5sWiW3RrCAJHhE6Rf-27" edge="1">
          <mxGeometry x="-0.0566" y="-3" width="50" height="50" relative="1" as="geometry">
            <mxPoint x="808" y="352" as="sourcePoint" />
            <mxPoint x="852" y="343" as="targetPoint" />
            <mxPoint as="offset" />
          </mxGeometry>
        </mxCell>
        <mxCell id="WdN5sWiW3RrCAJHhE6Rf-38" value="《include》" style="endArrow=classic;html=1;rounded=0;dashed=1;" parent="WIyWlLk6GJQsqaUBKTNV-1" source="WdN5sWiW3RrCAJHhE6Rf-23" target="WdN5sWiW3RrCAJHhE6Rf-33" edge="1">
          <mxGeometry width="50" height="50" relative="1" as="geometry">
            <mxPoint x="818" y="362" as="sourcePoint" />
            <mxPoint x="862" y="353" as="targetPoint" />
          </mxGeometry>
        </mxCell>
        <mxCell id="S_TkFREf6OAato7yUdSO-0" value="HomeShield Separation" style="ellipse;whiteSpace=wrap;html=1;" parent="WIyWlLk6GJQsqaUBKTNV-1" vertex="1">
          <mxGeometry x="840" y="340" width="80" height="50" as="geometry" />
        </mxCell>
        <mxCell id="S_TkFREf6OAato7yUdSO-2" value="《include》" style="endArrow=classic;html=1;rounded=0;exitX=0.938;exitY=0.72;exitDx=0;exitDy=0;exitPerimeter=0;dashed=1;" parent="WIyWlLk6GJQsqaUBKTNV-1" source="S_TkFREf6OAato7yUdSO-0" target="WdN5sWiW3RrCAJHhE6Rf-20" edge="1">
          <mxGeometry width="50" height="50" relative="1" as="geometry">
            <mxPoint x="700" y="460" as="sourcePoint" />
            <mxPoint x="775" y="380" as="targetPoint" />
          </mxGeometry>
        </mxCell>
        <mxCell id="S_TkFREf6OAato7yUdSO-6" value="《include》" style="endArrow=classic;html=1;rounded=0;dashed=1;" parent="WIyWlLk6GJQsqaUBKTNV-1" source="WdN5sWiW3RrCAJHhE6Rf-23" target="S_TkFREf6OAato7yUdSO-0" edge="1">
          <mxGeometry width="50" height="50" relative="1" as="geometry">
            <mxPoint x="530" y="350" as="sourcePoint" />
            <mxPoint x="767" y="360" as="targetPoint" />
          </mxGeometry>
        </mxCell>
        <mxCell id="S_TkFREf6OAato7yUdSO-7" value="Region Code Management" style="ellipse;whiteSpace=wrap;html=1;" parent="WIyWlLk6GJQsqaUBKTNV-1" vertex="1">
          <mxGeometry x="660" y="460" width="80" height="50" as="geometry" />
        </mxCell>
        <mxCell id="S_TkFREf6OAato7yUdSO-8" value="" style="endArrow=classic;html=1;rounded=0;" parent="WIyWlLk6GJQsqaUBKTNV-1" source="S_TkFREf6OAato7yUdSO-0" target="S_TkFREf6OAato7yUdSO-7" edge="1">
          <mxGeometry width="50" height="50" relative="1" as="geometry">
            <mxPoint x="540" y="390" as="sourcePoint" />
            <mxPoint x="790" y="479" as="targetPoint" />
          </mxGeometry>
        </mxCell>
        <mxCell id="S_TkFREf6OAato7yUdSO-11" value="" style="endArrow=classic;html=1;rounded=0;exitX=1;exitY=0.5;exitDx=0;exitDy=0;exitPerimeter=0;" parent="WIyWlLk6GJQsqaUBKTNV-1" source="WdN5sWiW3RrCAJHhE6Rf-14" target="WdN5sWiW3RrCAJHhE6Rf-23" edge="1">
          <mxGeometry width="50" height="50" relative="1" as="geometry">
            <mxPoint x="466" y="360" as="sourcePoint" />
            <mxPoint x="621" y="485" as="targetPoint" />
          </mxGeometry>
        </mxCell>
        <mxCell id="wbjYCcMo52qHkhNd6e3G-1" value="" style="endArrow=classic;html=1;rounded=0;" edge="1" parent="WIyWlLk6GJQsqaUBKTNV-1" source="WdN5sWiW3RrCAJHhE6Rf-33" target="S_TkFREf6OAato7yUdSO-0">
          <mxGeometry width="50" height="50" relative="1" as="geometry">
            <mxPoint x="847" y="370" as="sourcePoint" />
            <mxPoint x="860" y="430" as="targetPoint" />
          </mxGeometry>
        </mxCell>
        <mxCell id="wbjYCcMo52qHkhNd6e3G-4" value="" style="endArrow=classic;html=1;rounded=0;entryX=0.36;entryY=0.047;entryDx=0;entryDy=0;entryPerimeter=0;" edge="1" parent="WIyWlLk6GJQsqaUBKTNV-1" source="WdN5sWiW3RrCAJHhE6Rf-26" target="S_TkFREf6OAato7yUdSO-0">
          <mxGeometry width="50" height="50" relative="1" as="geometry">
            <mxPoint x="748" y="283" as="sourcePoint" />
            <mxPoint x="862" y="357" as="targetPoint" />
          </mxGeometry>
        </mxCell>
        <mxCell id="wbjYCcMo52qHkhNd6e3G-5" value="" style="endArrow=classic;html=1;rounded=0;entryX=0.063;entryY=0.247;entryDx=0;entryDy=0;entryPerimeter=0;exitX=0.985;exitY=0.628;exitDx=0;exitDy=0;exitPerimeter=0;" edge="1" parent="WIyWlLk6GJQsqaUBKTNV-1" source="WdN5sWiW3RrCAJHhE6Rf-27" target="S_TkFREf6OAato7yUdSO-0">
          <mxGeometry width="50" height="50" relative="1" as="geometry">
            <mxPoint x="630.4738601004827" y="300.0018506804245" as="sourcePoint" />
            <mxPoint x="839.9999999999999" y="350.31" as="targetPoint" />
          </mxGeometry>
        </mxCell>
        <mxCell id="wbjYCcMo52qHkhNd6e3G-6" value="" style="endArrow=classic;html=1;rounded=0;" edge="1" parent="WIyWlLk6GJQsqaUBKTNV-1" source="WdN5sWiW3RrCAJHhE6Rf-28" target="S_TkFREf6OAato7yUdSO-0">
          <mxGeometry width="50" height="50" relative="1" as="geometry">
            <mxPoint x="768" y="303" as="sourcePoint" />
            <mxPoint x="882" y="377" as="targetPoint" />
          </mxGeometry>
        </mxCell>
        <mxCell id="wbjYCcMo52qHkhNd6e3G-7" value="HomeShield Host 缓存" style="ellipse;whiteSpace=wrap;html=1;" vertex="1" parent="WIyWlLk6GJQsqaUBKTNV-1">
          <mxGeometry x="827" y="440" width="80" height="50" as="geometry" />
        </mxCell>
        <mxCell id="wbjYCcMo52qHkhNd6e3G-8" value="《include》" style="endArrow=classic;html=1;rounded=0;dashed=1;" edge="1" parent="WIyWlLk6GJQsqaUBKTNV-1" target="wbjYCcMo52qHkhNd6e3G-7" source="S_TkFREf6OAato7yUdSO-0">
          <mxGeometry width="50" height="50" relative="1" as="geometry">
            <mxPoint x="840" y="408" as="sourcePoint" />
            <mxPoint x="700" y="412" as="targetPoint" />
          </mxGeometry>
        </mxCell>
        <mxCell id="wbjYCcMo52qHkhNd6e3G-12" value="Region Code 缓存" style="ellipse;whiteSpace=wrap;html=1;" vertex="1" parent="WIyWlLk6GJQsqaUBKTNV-1">
          <mxGeometry x="605" y="550" width="80" height="50" as="geometry" />
        </mxCell>
        <mxCell id="wbjYCcMo52qHkhNd6e3G-13" value="《include》" style="endArrow=classic;html=1;rounded=0;dashed=1;" edge="1" parent="WIyWlLk6GJQsqaUBKTNV-1" target="wbjYCcMo52qHkhNd6e3G-12" source="S_TkFREf6OAato7yUdSO-7">
          <mxGeometry width="50" height="50" relative="1" as="geometry">
            <mxPoint x="740" y="500" as="sourcePoint" />
            <mxPoint x="563" y="522" as="targetPoint" />
          </mxGeometry>
        </mxCell>
        <mxCell id="wbjYCcMo52qHkhNd6e3G-14" value="Region Code 查询" style="ellipse;whiteSpace=wrap;html=1;" vertex="1" parent="WIyWlLk6GJQsqaUBKTNV-1">
          <mxGeometry x="730" y="550" width="80" height="50" as="geometry" />
        </mxCell>
        <mxCell id="wbjYCcMo52qHkhNd6e3G-15" value="《include》" style="endArrow=classic;html=1;rounded=0;dashed=1;" edge="1" parent="WIyWlLk6GJQsqaUBKTNV-1" target="wbjYCcMo52qHkhNd6e3G-14" source="S_TkFREf6OAato7yUdSO-7">
          <mxGeometry width="50" height="50" relative="1" as="geometry">
            <mxPoint x="830" y="500" as="sourcePoint" />
            <mxPoint x="653" y="522" as="targetPoint" />
          </mxGeometry>
        </mxCell>
      </root>
    </mxGraphModel>
  </diagram>
</mxfile>
